<svg xmlns="http://www.w3.org/2000/svg" viewBox="0 0 548 552.48"><defs><style>.cls-1,.cls-10,.cls-11,.cls-12,.cls-13,.cls-14,.cls-3,.cls-8,.cls-9{fill:#fff;}.cls-2,.cls-4,.cls-5,.cls-6,.cls-7{fill:none;}.cls-10,.cls-13,.cls-2,.cls-3,.cls-4,.cls-5,.cls-6,.cls-7,.cls-8,.cls-9{stroke:#fff;stroke-miterlimit:10;}.cls-2,.cls-5{stroke-linecap:round;}.cls-10,.cls-13,.cls-2,.cls-3,.cls-8,.cls-9{stroke-width:15px;}.cls-4,.cls-5{stroke-width:3px;opacity:0.7;}.cls-6{stroke-width:4px;}.cls-7{stroke-width:7px;}.cls-8{opacity:0.8;}.cls-11,.cls-9{opacity:0.4;}.cls-10,.cls-12{opacity:0.2;}.cls-13,.cls-14{opacity:0.05;}</style></defs><title>Asset 11</title><g id="Layer_2" data-name="Layer 2"><g id="finals"><path class="cls-1" d="M468,34.48a50.15,50.15,0,0,1,50,50v388a50.15,50.15,0,0,1-50,50H80a50.15,50.15,0,0,1-50-50v-388a50.15,50.15,0,0,1,50-50H468m0-30H80a80.09,80.09,0,0,0-80,80v388a80.09,80.09,0,0,0,80,80H468a80.09,80.09,0,0,0,80-80v-388a80.09,80.09,0,0,0-80-80Z"/><path class="cls-2" d="M371.11,405.86l18,14.31c5,3.79,19.66,7.56,25.94,8.07,21.12,1.7,58.36-11,74.28-18,25.82-11.39,43.09-36.3,44.55-68.34A137.34,137.34,0,0,0,532.5,320c-1.77-14,10-26.42-2.22-33.55l-56.72-33.12a53.15,53.15,0,0,1-7.32-7.46l-4.64-5.77a53.16,53.16,0,0,0-51.72-18.83L325.36,238a53.16,53.16,0,0,0-19.76,8.31l-70.46,48.33a45.56,45.56,0,0,0-17.3,22.72l-20.67,60a19.07,19.07,0,0,0,7.45,22.08h0a19.07,19.07,0,0,0,13.1,3l13.8-1.84a1.52,1.52,0,0,1,1.71,1.63l7.35,16.37c1.39,3.1,4.88,5,8.87,6.23a21.54,21.54,0,0,0,22.63-7.12c1.84-2.19,4.14-4,6.85-4.44,14.7-2.24,14.49,7.68,28.86,6.83,8.07-.47,13.58-5.15,16.57-8.59A36.07,36.07,0,0,1,339.42,401C347.82,398,359.48,397,371.11,405.86Z"/><path class="cls-2" d="M246.12,392.36"/><path class="cls-3" d="M264.5,356.28,422.44,162.22a.76.76,0,0,0-.11-1.07,17.87,17.87,0,0,0-14.7-12,.78.78,0,0,0-.56-.17.76.76,0,0,0-.51.28l-224,286.43a.76.76,0,0,0,.11,1.07l4.83,4.41a.76.76,0,0,0,1.07-.11l50.17-51.36s-2-16.34,8.55-26.25a27.87,27.87,0,0,1,17.27-7.17"/><path class="cls-2" d="M238.52,387a26.74,26.74,0,0,0,31.26,22.78l69-12.46a38,38,0,0,1,24.75,3.93"/><path class="cls-2" d="M371.57,296.29c3.8,5.32,5.28,16.95-3.8,28.1-13.18,16.18-24.13,18.57-28.1,19l-79.23,13.78A26.74,26.74,0,0,0,238.52,387h0"/><path class="cls-3" d="M226.53,325.91"/><path class="cls-4" d="M152.36,431a.28.28,0,0,0,.09-.31.09.09,0,0,1,0,0l1.63-14.72a.1.1,0,0,0,0,0,.28.28,0,0,1,0-.24l2-3.16a6.75,6.75,0,0,0,.36-6.7,8.29,8.29,0,0,0-2.91-3.27,8.55,8.55,0,0,0-4.7-1.23,6,6,0,0,0-5,2.83l-2.09,3.3a.27.27,0,0,1-.22.13l-11.91,7.8h0a.27.27,0,0,0-.23.21l-4.91,29.8a.76.76,0,0,0,1.1.82Z"/><line class="cls-5" x1="131.63" y1="436.02" x2="137.92" y2="426.67"/><path class="cls-4" d="M140,427.22a1.67,1.67,0,0,1-2.34.49,1.73,1.73,0,0,1-.49-2.37,1.67,1.67,0,0,1,2.34-.49A1.73,1.73,0,0,1,140,427.22Z"/><line class="cls-4" x1="145.33" y1="408.72" x2="151.25" y2="412.54"/><path class="cls-6" d="M167.24,444.43s-23.63-1-23.86,23.32c-.15,15.72-3.38,21.14-5.65,23a.76.76,0,0,0,.39,1.35c9.85,1.1,44.47,2.26,45.73-35.62Z"/><path class="cls-6" d="M139.12,487.75s4,.82,9.41-23.31c5.95-26.44,23-16,23.51-15.79"/><path class="cls-6" d="M175.7,451.37c-1.08-.29-10.52-8.51-20.69,9.68-11.86,21.22-13.76,25.65-13.76,25.65"/><path class="cls-6" d="M179.1,452.93c-1.36,4.31-8.2,30.67-39.95,36"/><path class="cls-6" d="M140.79,490.7s38.67-2,40-34.81"/><path class="cls-6" d="M137.76,490.86c-2.72,2.14,34.68-24,38.53-39.86"/><path class="cls-7" d="M168,443.64l.25-.27a7.53,7.53,0,0,1,5.93-2.51c3.42.16,8.18,1.64,10.71,8a7.63,7.63,0,0,1-.34,6.38l-.65,1.23Z"/><path class="cls-6" d="M140.72,489.37c-1,1.69,25.46-37.65,34.54-37"/><path class="cls-8" d="M362.47,100a17.87,17.87,0,0,0-15.85-10.45.78.78,0,0,0-.57-.11.76.76,0,0,0-.48.33L151.83,397.48a.76.76,0,0,0,.22,1.05l5.26,3.9a.76.76,0,0,0,1.05-.22L362.67,100.68S362.82,100.19,362.47,100Z"/><path class="cls-3" d="M385.23,128"/><path class="cls-3" d="M227.29,322.11"/><path class="cls-9" d="M309.65,52.93a17.87,17.87,0,0,0-16.69-9,.78.78,0,0,0-.58-.06.76.76,0,0,0-.45.37L125.35,367.45a.76.76,0,0,0,.31,1l5.57,3.43a.76.76,0,0,0,1-.31l177.64-318S310,53.13,309.65,52.93Z"/><path class="cls-10" d="M247.06,16.46c-4.16-1.64-5.81-5.27-7.42-5,0,0-7.3.88-7.58,1a25.1,25.1,0,0,0-2.41,2.41l-131.19,324a.76.76,0,0,0,.4,1l5.88,2.87a.76.76,0,0,0,1-.4S251.66,18.27,247.06,16.46Z"/><path class="cls-11" d="M111.31,394.4l-2.4,7.54a2,2,0,0,0,3.4,1.83l4.8-5.91a3.87,3.87,0,0,0-.15-5.13,3,3,0,0,0-4.06-.43A3.77,3.77,0,0,0,111.31,394.4Z"/><path class="cls-11" d="M121.28,392.89c2.05-2.58,7-8.78,9.51-11.87a3.88,3.88,0,0,0,.84-3c-.41-2.65-2.83-3.85-5.25-5.1-2.22-1.15-4-2.38-6.32-1.44a3.92,3.92,0,0,0-2.23,2.45l-5.06,14.76a1,1,0,0,0,1.11,1.29,5.53,5.53,0,0,1,1.75,0,6.18,6.18,0,0,1,4.07,2.87A1,1,0,0,0,121.28,392.89Z"/><path class="cls-12" d="M105,349.32l-2.45-5.2-3.37,2.67L97,342l-2.67,2-1.26-4a1,1,0,0,0-1.35.7L87.48,372.3a1,1,0,0,0,1.69.91s20-24.52,19.5-26.1a1.36,1.36,0,0,0-.34-.69Z"/><path class="cls-13" d="M174.46,13.45a17.87,17.87,0,0,0-18.24-5.26.78.78,0,0,0-.58.06.76.76,0,0,0-.36.45L71.83,310.15a.76.76,0,0,0,.52.94l6.18,2.16a.76.76,0,0,0,.94-.52L174.86,14.08S174.86,13.57,174.46,13.45Z"/><path class="cls-14" d="M65.62,315.91a1,1,0,0,0-1.26.85l-.48,31.91a1,1,0,0,0,1.78.7S82.59,322.67,82,321.16a1.36,1.36,0,0,0-.42-.64c-.89-1-2.74-1.09-7.53-2C70.7,317.83,67,315.48,65.62,315.91Z"/></g></g></svg>