<svg xmlns="http://www.w3.org/2000/svg" viewBox="0 0 789.37 767.93">
  <defs>
    <style>
      .cls-1,
      .cls-2 {
        fill: none;
      }
      .cls-2 {
        stroke: #231f20;
        stroke-linecap: round;
        stroke-width: 1.6px;
      }
      .cls-3,
      .cls-4,
      .cls-6 {
        fill: #fff;
      }
      .cls-4 {
        opacity: 0.5;
      }
      .cls-5,
      .cls-6 {
        opacity: 0.9;
      }
      .cls-7 {
        fill: #fc95b0;
      }
      .cls-8 {
        fill: url("#New_Gradient_Swatch");
      }
      .cls-9 {
        opacity: 0.18;
        fill: url("#Capsules");
      }
      .cls-10 {
        fill: url("#New_Gradient_Swatch-2");
      }
      .cls-11 {
        fill: url("#linear-gradient");
      }
    </style>
    <linearGradient id="New_Gradient_Swatch" x1="146.6" y1="206.17" x2="321.45" y2="206.17" gradientTransform="translate(417.94 -45.72) rotate(84.76)" gradientUnits="userSpaceOnUse"><stop offset="0" stop-color="#f15a24"/><stop offset="1" stop-color="#ed1e79"/></linearGradient>
    <pattern id="Capsules" data-name="Capsules" width="57.6" height="57.6" patternUnits="userSpaceOnUse" viewBox="0 0 57.6 57.6"><rect class="cls-1" width="57.6" height="57.6"/><line class="cls-2" x1="58.11" y1="14.48" x2="62.26" y2="13.45"/><line class="cls-2" x1="25.8" y1="31.8" x2="23.59" y2="35.46"/><line class="cls-2" x1="23.23" y1="24.91" x2="24.99" y2="28.13"/><line class="cls-2" x1="21.75" y1="27.35" x2="21.97" y2="32.17"/><line class="cls-2" x1="30.78" y1="44.12" x2="31.58" y2="48.31"/><line class="cls-2" x1="17.5" y1="38.69" x2="16.71" y2="42.89"/><line class="cls-2" x1="9.87" y1="39.16" x2="13.17" y2="41.87"/><line class="cls-2" x1="17.5" y1="33.44" x2="20.8" y2="36.15"/><line class="cls-2" x1="21.67" y1="43.39" x2="20.2" y2="39.38"/><line class="cls-2" x1="9.45" y1="42.01" x2="5.25" y2="45.6"/><line class="cls-2" x1="15.12" y1="31.3" x2="19.23" y2="30.12"/><line class="cls-2" x1="23.79" y1="50.9" x2="27.23" y2="48.36"/><line class="cls-2" x1="15.11" y1="52.77" x2="17.32" y2="49.11"/><line class="cls-2" x1="33.75" y1="34.15" x2="35.43" y2="38.08"/><line class="cls-2" x1="41.75" y1="24.85" x2="41.2" y2="30.6"/><line class="cls-2" x1="30.57" y1="38.9" x2="28.44" y2="42.61"/><line class="cls-2" x1="39.67" y1="38.73" x2="36.36" y2="41.44"/><line class="cls-2" x1="38.59" y1="52.05" x2="41.91" y2="54.74"/><line class="cls-2" x1="36.91" y1="32.47" x2="40.2" y2="35.2"/><line class="cls-2" x1="30.08" y1="34.59" x2="31.57" y2="30.58"/><line class="cls-2" x1="34.28" y1="30.47" x2="37.92" y2="28.22"/><line class="cls-2" x1="10.02" y1="47.92" x2="12.5" y2="44.44"/><line class="cls-2" x1="41" y1="20.38" x2="38.61" y2="23.93"/><line class="cls-2" x1="14" y1="37.85" x2="12.28" y2="32.64"/><line class="cls-2" x1="13.16" y1="17.15" x2="15.93" y2="13.89"/><line class="cls-2" x1="34.69" y1="21.86" x2="34.25" y2="27.35"/><line class="cls-2" x1="21.5" y1="23.35" x2="23.41" y2="18.74"/><line class="cls-2" x1="25.72" y1="42.06" x2="24.3" y2="46.09"/><line class="cls-2" x1="31.69" y1="41.64" x2="35" y2="44.35"/><line class="cls-2" x1="16.34" y1="21.93" x2="19" y2="26.6"/><line class="cls-2" x1="25.13" y1="55.12" x2="28.77" y2="52.87"/><line class="cls-2" x1="14.98" y1="28.92" x2="10.85" y2="27.81"/><line class="cls-2" x1="14.37" y1="20.32" x2="12.75" y2="23.35"/><line class="cls-2" x1="45.75" y1="5.85" x2="46" y2="11"/><line class="cls-2" x1="30.47" y1="3.36" x2="33.77" y2="6.07"/><line class="cls-2" x1="25.25" y1="5.35" x2="20.96" y2="8.34"/><line class="cls-2" x1="13.76" y1="2.28" x2="17.5" y2="4.85"/><line class="cls-2" x1="27.85" y1="16.5" x2="30" y2="20.2"/><line class="cls-2" x1="30" y1="9.1" x2="29.45" y2="12.48"/><line class="cls-2" x1="33.31" y1="8.65" x2="37.23" y2="10.36"/><line class="cls-2" x1="25.51" y1="9.77" x2="27.72" y2="6.11"/><line class="cls-2" x1="48.25" y1="21.1" x2="44.41" y2="24.49"/><line class="cls-2" x1="17.75" y1="19.6" x2="19.65" y2="14.7"/><line class="cls-2" x1="16.67" y1="8.58" x2="19.71" y2="11.59"/><line class="cls-2" x1="42.22" y1="4.71" x2="40" y2="8.6"/><line class="cls-2" x1="44.5" y1="15.09" x2="44.59" y2="19.37"/><line class="cls-2" x1="40.62" y1="12.39" x2="44.88" y2="12.6"/><line class="cls-2" x1="25.86" y1="12.96" x2="22.56" y2="15.68"/><line class="cls-2" x1="45.25" y1="30.68" x2="43.56" y2="34.61"/><line class="cls-2" x1="50.08" y1="38.59" x2="50.8" y2="42.8"/><line class="cls-2" x1="50.7" y1="33.6" x2="52.28" y2="37.58"/><line class="cls-2" x1="50.74" y1="46.68" x2="47.45" y2="49.41"/><line class="cls-2" x1="52.6" y1="50.24" x2="54.81" y2="46.58"/><line class="cls-2" x1="43.48" y1="45.25" x2="44.5" y2="50.35"/><line class="cls-2" x1="54.61" y1="23.34" x2="50.35" y2="23.02"/><line class="cls-2" x1="56.36" y1="40.21" x2="53.08" y2="42.94"/><line class="cls-2" x1="47.65" y1="36.43" x2="45.85" y2="40.31"/><line class="cls-2" x1="53.43" y1="26.2" x2="56.59" y2="29.08"/><line class="cls-2" x1="7.75" y1="5.35" x2="5.03" y2="8.35"/><line class="cls-2" x1="14.01" y1="10.21" x2="10.71" y2="12.92"/><line class="cls-2" x1="11.18" y1="2.54" x2="12.41" y2="6.64"/><line class="cls-2" x1="47.75" y1="30.75" x2="52" y2="31.23"/><line class="cls-2" x1="6.75" y1="47.81" x2="5.07" y2="51.74"/><line class="cls-2" x1="8.29" y1="52.97" x2="5" y2="55.7"/><line class="cls-2" x1="6.13" y1="29.9" x2="9.42" y2="32.64"/><line class="cls-2" x1="48.93" y1="7.12" x2="52.57" y2="4.87"/><line class="cls-2" x1="50.22" y1="9.62" x2="48.8" y2="13.65"/><line class="cls-2" x1="0.51" y1="14.48" x2="4.66" y2="13.45"/><line class="cls-2" x1="2.51" y1="28.91" x2="4.73" y2="25.25"/><line class="cls-2" x1="5.56" y1="18.33" x2="2.28" y2="21.06"/><line class="cls-2" x1="7.34" y1="14.93" x2="9.5" y2="18.6"/><line class="cls-2" x1="5.75" y1="21.1" x2="8.49" y2="25.63"/><line class="cls-2" x1="4.01" y1="32.39" x2="3.22" y2="36.59"/><line class="cls-2" x1="9.5" y1="35.6" x2="5.49" y2="38.68"/><line class="cls-2" x1="11.45" y1="49.91" x2="11.77" y2="54.17"/><line class="cls-2" x1="34.75" y1="12.6" x2="30.81" y2="15.89"/><line class="cls-2" x1="37.38" y1="13.27" x2="39.53" y2="16.97"/><line class="cls-2" x1="33.31" y1="17.56" x2="37.13" y2="19.48"/><line class="cls-2" x1="28.46" y1="36.85" x2="25.16" y2="39.56"/><line class="cls-2" x1="20.2" y1="44.7" x2="16.23" y2="46.28"/><line class="cls-2" x1="20" y1="50.1" x2="22" y2="54.35"/><line class="cls-2" x1="36.25" y1="47.35" x2="40.26" y2="48.82"/><line class="cls-2" x1="37" y1="3.1" x2="36.59" y2="7.48"/><line class="cls-2" x1="40.85" y1="41.63" x2="39.8" y2="45.78"/><line class="cls-2" x1="36.17" y1="49.7" x2="32.07" y2="50.93"/><line class="cls-2" x1="32.5" y1="23.6" x2="28.66" y2="27.73"/><line class="cls-2" x1="49.95" y1="51.35" x2="51.63" y2="55.28"/><line class="cls-2" x1="56.21" y1="36.53" x2="59.51" y2="39.24"/><line class="cls-2" x1="56.96" y1="46.23" x2="60.26" y2="48.94"/><line class="cls-2" x1="54.22" y1="32.17" x2="58.32" y2="30.99"/><line class="cls-2" x1="56.44" y1="21.41" x2="58.59" y2="25.1"/><line class="cls-2" x1="58.11" y1="14.48" x2="62.26" y2="13.45"/><line class="cls-2" x1="59" y1="51.6" x2="55.71" y2="54.33"/><line class="cls-2" x1="51.15" y1="14.55" x2="52.83" y2="18.48"/><line class="cls-2" x1="60.33" y1="42.9" x2="56.15" y2="43.82"/><line class="cls-2" x1="50.93" y1="26.1" x2="45.75" y2="27.35"/><line class="cls-2" x1="6.07" y1="11.21" x2="9.6" y2="8.8"/><line class="cls-2" x1="45.04" y1="42.43" x2="48.04" y2="45.48"/><line class="cls-2" x1="53.09" y1="8.66" x2="55.09" y2="12.44"/><line class="cls-2" x1="59.06" y1="17.93" x2="54.8" y2="17.6"/><line class="cls-2" x1="26.36" y1="19.81" x2="27.5" y2="24.85"/><line class="cls-2" x1="42.16" y1="36.41" x2="43" y2="40.6"/><line class="cls-2" x1="47.22" y1="17.96" x2="50.96" y2="20.03"/><line class="cls-2" x1="35" y1="54.35" x2="31.97" y2="53.38"/><line class="cls-2" x1="20.65" y1="1.85" x2="20.2" y2="6.1"/><line class="cls-2" x1="2" y1="5.6" x2="3" y2="10.85"/><line class="cls-2" x1="56.25" y1="8.1" x2="57.74" y2="4.1"/><line class="cls-2" x1="47.75" y1="52.73" x2="46" y2="56.6"/><line class="cls-2" x1="44.33" y1="59.77" x2="40.66" y2="57.58"/><line class="cls-2" x1="29.5" y1="55.2" x2="27.71" y2="60.69"/><line class="cls-2" x1="21.5" y1="56.45" x2="24.5" y2="60.7"/><line class="cls-2" x1="50.93" y1="57.37" x2="47.63" y2="60.08"/><line class="cls-2" x1="8.53" y1="55.83" x2="7.6" y2="60"/><line class="cls-2" x1="15" y1="55.6" x2="11.75" y2="57.95"/><line class="cls-2" x1="1.6" y1="55.4" x2="2.4" y2="59.6"/><line class="cls-2" x1="54" y1="60.4" x2="56.21" y2="56.74"/><line class="cls-2" x1="34" y1="60.7" x2="33.97" y2="57.43"/><line class="cls-2" x1="16.91" y1="54.14" x2="17.62" y2="58.35"/><line class="cls-2" x1="37.15" y1="55.8" x2="39" y2="59.1"/><line class="cls-2" x1="-1.39" y1="36.53" x2="1.91" y2="39.24"/><line class="cls-2" x1="-0.64" y1="46.23" x2="2.66" y2="48.94"/><line class="cls-2" x1="-3.39" y1="32.17" x2="0.72" y2="30.99"/><line class="cls-2" x1="-1.16" y1="21.41" x2="0.99" y2="25.1"/><line class="cls-2" x1="0.51" y1="14.48" x2="4.66" y2="13.45"/><line class="cls-2" x1="1.4" y1="51.6" x2="-1.89" y2="54.33"/><line class="cls-2" x1="2.73" y1="42.9" x2="-1.45" y2="43.82"/><line class="cls-2" x1="1.46" y1="17.93" x2="-2.8" y2="17.6"/><line class="cls-2" x1="-1.35" y1="8.1" x2="0.14" y2="4.1"/><line class="cls-2" x1="44.33" y1="2.17" x2="40.66" y2="-0.02"/><line class="cls-2" x1="29.5" y1="-2.4" x2="27.71" y2="3.09"/><line class="cls-2" x1="21.5" y1="-1.15" x2="24.5" y2="3.1"/><line class="cls-2" x1="50.93" y1="-0.23" x2="47.63" y2="2.48"/><line class="cls-2" x1="8.53" y1="-1.77" x2="7.6" y2="2.4"/><line class="cls-2" x1="15" y1="-2" x2="11.75" y2="0.35"/><line class="cls-2" x1="1.6" y1="-2.2" x2="2.4" y2="2"/><line class="cls-2" x1="54" y1="2.8" x2="56.21" y2="-0.86"/><line class="cls-2" x1="34" y1="3.1" x2="33.97" y2="-0.17"/><line class="cls-2" x1="16.91" y1="-3.46" x2="17.62" y2="0.75"/><line class="cls-2" x1="37.15" y1="-1.8" x2="39" y2="1.5"/></pattern><linearGradient id="New_Gradient_Swatch-2" x1="379.33" y1="237" x2="562.8" y2="237" gradientTransform="translate(664.02 -253.75) rotate(84.76)" xlink:href="#New_Gradient_Swatch"/>
    <linearGradient id="linear-gradient" x1="233.78" y1="382.5" x2="202.66" y2="374.79" gradientTransform="translate(163.86 -237.35) rotate(5.24)" gradientUnits="userSpaceOnUse"><stop offset="0" stop-color="#fff" stop-opacity="0"/><stop offset="1" stop-color="#fff" stop-opacity="0.2"/></linearGradient>
  </defs>
  <title>Asset 1</title>
  <g id="Layer_2" data-name="Layer 2">
    <g id="Layer_6" data-name="Layer 6">
      <g id="Layer_4" data-name="Layer 4"><path
        class="cls-3"
        d="M346.27,594.12c-8.21,13.1-13.58,27.19-15.21,42.6-1.64,15.56-.17,31.64,1.16,47.18.71,8.35,2.74,16.21,8.85,22.27,5.35,5.31,12.49,8.76,19.59,11.07a70.28,70.28,0,0,0,56.69-6.53,63.46,63.46,0,0,0,5.51-3.74c.82-.62,4.34-4.25,5.19-4.11-.34-.06,3.31,4.68,3.63,5.06l5.57,6.65,11.14,13.3c4.14,4.94,11.18-2.17,7.07-7.07l-17.94-21.42c-4.8-5.73-10.05-8.79-16.72-3.53-11.91,9.4-25.22,14.93-40.62,14.61-13.36-.27-33.1-5.28-36.93-20.1-2-7.8-1.75-16.55-2.23-24.57-.43-7.21-.76-14.44-.48-21.66.63-16.37,5.69-31.12,14.37-45,3.43-5.47-5.22-10.49-8.63-5Z"/><path class="cls-3" d="M382.11,606.43a1242.72,1242.72,0,0,0-99.12,154l7.85-1a145.25,145.25,0,0,1-23.06-29.18c-3.31-5.51-12-.49-8.63,5a155.8,155.8,0,0,0,24.63,31.2,5.05,5.05,0,0,0,7.85-1,1242.72,1242.72,0,0,1,99.12-154c3.86-5.15-4.81-10.14-8.63-5Z"/><path
        class="cls-3"
        d="M117.43,515.08c-28.3,9.11-58.21-13.57-76.7-32.87A76.92,76.92,0,0,1,21.1,413.87a75,75,0,0,1,18.27-36.61c4.37-4.72-2.69-11.8-7.07-7.07-18.89,20.4-26.15,49.29-21,76.44,5.88,31.08,30.49,54.83,57.2,69.85,15.69,8.82,34,13.93,51.61,8.25,6.1-2,3.49-11.62-2.66-9.64Z"/><path
        class="cls-3"
        d="M40.39,369.44c-16.37-11.75-24.93-31-28.57-50.31A107.18,107.18,0,0,1,10,304.79a30.61,30.61,0,0,1,.17-6.43c.36-2.22,1.56-3.48,2.25-5.39l.86-.6q-1.73-1.33-.68.33c0,1,1.34,3.39,1.65,4.24q1.52,4.22,2.73,8.54a120.53,120.53,0,0,1,3.61,18c.76,6.31,10.77,6.39,10,0a134.91,134.91,0,0,0-5-24.12C24,294,22.2,284.58,16,282.57c-5.93-1.91-11.67,3.32-13.89,8.29C-.39,296.4-.2,302.61.34,308.51c2.44,26.71,12.58,53.46,35,69.56,5.24,3.76,10.23-4.91,5-8.63Z"/><path
        class="cls-3"
        d="M24.65,295l0-7.17v-3.58q-.23-2.88.1-1.37a4.25,4.25,0,0,1,4.49-.48c1.1.85,1.47,3.18,1.79,4.42,2.39,9.18,3.64,18.84,4.76,28.24.75,6.31,10.76,6.39,10,0-1-8.06-2.15-16.09-3.7-24.06-1.13-5.85-2-12.95-7.14-16.84-4.92-3.76-12.26-2.41-17,1.12-5.44,4.06-3.29,13.86-3.27,19.72,0,6.43,10,6.45,10,0Z"/><path
        class="cls-3"
        d="M47.33,313.09c-1.37-8.71-.41-19.81,8.13-24.67,7.37-4.19,17.65-.36,23.49,4.87A25.54,25.54,0,0,1,87,316.23c-1.35,8.47-8,18.5-17.82,15.82-6.22-1.7-8.87,7.94-2.66,9.64,14,3.82,25.78-6.93,29.43-19.78,3.57-12.56-.18-26.91-9.95-35.7-9.06-8.15-23.62-12.8-35-6.77-13.24,7-15.42,22.94-13.32,36.31,1,6.34,10.63,3.65,9.64-2.66Z"/><path
        class="cls-3"
        d="M66.89,302.77c-11.1-3.06-13.52,16.24-3.41,18.69,4.38,1.06,8.78-2.16,10.57-6a12,12,0,0,0-.76-12c-1.58-2.19-4.35-3.25-6.84-1.79-2.16,1.26-3.38,4.64-1.79,6.84a5.84,5.84,0,0,1,.57.87q-.23-.62,0,.25c-.18-.73,0,.53,0,.73.06-1-.34,1-.15.6s-.9,1.37-.36.55c-.8,1.22-.28,0-.12.16a2.38,2.38,0,0,1,2.52,1q.16.63-.09-.28a1.25,1.25,0,0,0-.06-.83q-.11-1,.07-.57a2.46,2.46,0,0,1-2.87,1.35c6.21,1.72,8.86-7.93,2.66-9.64Z"/><path class="cls-3" d="M72.82,306.45a16,16,0,0,1,6.83-11.16c5.28-3.61.29-12.28-5-8.63a26.87,26.87,0,0,0-11.79,19.79c-.3,2.69,2.51,5,5,5,3,0,4.7-2.3,5-5Z"/><path class="cls-3" d="M62.58,249.61,52.4,212.16c-1.69-6.2-11.34-3.57-9.64,2.66l10.18,37.45c1.69,6.2,11.34,3.57,9.64-2.66Z"/><path class="cls-3" d="M92.64,253a129.82,129.82,0,0,1,3.41-39.15c1.53-6.25-8.11-8.92-9.64-2.66A139.16,139.16,0,0,0,82.64,253c.4,6.39,10.4,6.44,10,0Z"/><path class="cls-3" d="M110.19,277.85q13.4-7,26.58-14.36c5.61-3.15.58-11.79-5-8.63q-13.18,7.39-26.58,14.36c-5.71,3-.66,11.61,5,8.63Z"/><path class="cls-3" d="M110.14,316.45A41.45,41.45,0,0,0,123,315.32c6.25-1.52,3.6-11.17-2.66-9.64a32.4,32.4,0,0,1-10.17.78c-2.7-.2-5,2.44-5,5a5.1,5.1,0,0,0,5,5Z"/><path
        class="cls-3"
        d="M34.89,378.44c6.06,1.23,12.4,2.44,18.56,1.13,5.89-1.25,10.44-4.9,14.91-8.72,4.15-3.56,8-7.44,10-12.67,2.23-6,1.51-12.43.23-18.57-1.32-6.3-11-3.63-9.64,2.66.84,4,1.57,8.49.09,12.47-1.42,3.79-4.74,6.49-7.72,9s-5.84,5-9.64,5.94c-4.64,1.1-9.53,0-14.1-.93-6.28-1.27-9,8.37-2.66,9.64Z"/><path
        class="cls-3"
        d="M694.6,443.65c9.14-7,21.78-9,32.16-3.32,10.07,5.48,15.58,16.33,18.13,27.1,5.6,23.67-1.82,54.27-26.31,64.23-5.88,2.39-3.31,12.07,2.66,9.64,30.26-12.31,40.69-48.1,32.94-78C750.76,450.2,743,437.2,730.5,431a39.45,39.45,0,0,0-40.95,4c-5,3.87-.05,12.57,5,8.63Z"/><path
        class="cls-3"
        d="M714.05,535.81c-5,15.3,10.8,26.58,23.11,31.46,14.17,5.63,29.48-.14,40.43-9.82,6.24-5.52,20.18-27.19,4.81-30.7-6.14-1.4-13.92,1.8-19.15,4.79a41.37,41.37,0,0,0-14.55,14.22c-3.41,5.48,5.23,10.5,8.63,5a30.51,30.51,0,0,1,19.54-13.89c.36-.08,2.67-.71,2.92-.43-.55-.65-1.12,1.76-1.13,1.77a48,48,0,0,1-2.31,5.37,31.1,31.1,0,0,1-8.91,9.15c-8,5.58-17.56,8.9-27,5.06-7.26-3-19.83-9.83-16.73-19.38,2-6.14-7.66-8.76-9.64-2.66Z"/><path class="cls-3" d="M777.4,531.65c-3.45-9.23-15.6-10.72-24-8.12a28.09,28.09,0,0,0-18.47,18.27c-2,6.13,7.66,8.76,9.64,2.66a17.5,17.5,0,0,1,9.54-10.53,16.8,16.8,0,0,1,6.66-1.54c1.38,0,6.37.22,7,1.92,2.23,6,11.9,3.39,9.64-2.66Z"/><path class="cls-3" d="M743.16,531.72c-9.1-1.21-19.3-1.32-25.65,6.45-4,4.95,3,12.06,7.07,7.07,4.6-5.64,12.14-4.38,18.58-3.52s6.3-9.16,0-10Z"/></g>
      <g id="Layer_1-2" data-name="Layer 1"><path
        class="cls-4"
        d="M613.15,20.2A24.44,24.44,0,0,0,589.08,0H487a24.44,24.44,0,0,0-22.73,15.46L433,164.75,374.79,146.6a3.26,3.26,0,0,1-1.91-2.42L351,20.2A24.44,24.44,0,0,0,326.95,0H212.24a24.44,24.44,0,0,0-24.07,20.2l-101,573a24.44,24.44,0,0,0,24.07,28.69h105a24.44,24.44,0,0,0,24.07-20.2l45.57-258.41,46.13,231a32.59,32.59,0,0,0,16.43,22.27l53.45,18.65c3.81,2.1,14.93,2.17,18.8.18l36.48-17.66c9.08-4.4,31.91-12.76,34-22.63l48.71-231.84,45.57,258.41c3.33,13.46,8.32,20.5,27.88,20.5,17.93,0,93.09-.3,93.09-.3,31.49,0,43-13.72,40.37-28.69Z"/>
        <g class="cls-5"><path class="cls-3" d="M186.54,20.2l-101,573a24.44,24.44,0,0,0,24.07,28.69l45.16.15a16.3,16.3,0,0,0,16.21-13.32L289.23,19.07A16.3,16.3,0,0,0,273.18,0H210.61A24.44,24.44,0,0,0,186.54,20.2Z"/><path class="cls-3" d="M576.35,169.49,539.63,342.42l46.66,265.24c5.84,14.5,13.56,14.4,25.4,14.5l53.61-.12a16.3,16.3,0,0,0,16.28-19.3l-102-433.19A1.63,1.63,0,0,0,576.35,169.49Z"/></g><path
          class="cls-6"
          d="M423.77,207.59c-.74,4.22-75.29-46.41-79.18-48.23l-19.5,18.78a1.63,1.63,0,0,0-2.28,1.12l-37.27,165.8,45.92,229.26A32.59,32.59,0,0,0,348,596.63l41.64,13.62a11.41,11.41,0,0,0,16.6-7.89L543.44,19.17A16.3,16.3,0,0,0,527.4,0H486.76a24.44,24.44,0,0,0-23,16.29ZM319.14,257.28a71.72,71.72,0,0,0,20,14.7,73.21,73.21,0,0,0,38,7.16,6.58,6.58,0,0,1,2.84,2.93,6.51,6.51,0,0,1,.54,4l-33.94,54.53a1.63,1.63,0,0,1-3.19,0l-26.63-81.62A1.63,1.63,0,0,1,319.14,257.28Z"/></g>
      <g id="Layer_3" data-name="Layer 3"><path
        class="cls-7"
        d="M317.82,223l3.82.35,3.8-2.65c.14-2.32,3.1-43.94,19.94-47a11.48,11.48,0,0,1,5.71.52c10.42,3.32,14.4,20.2,21.93,53.83h0l13.32,1.22s9.59-83.56,100.94-75.18c0,0,64,13.55,70.87,85.19l6.52,1.87s4-3.56,4.07-4.89A215.5,215.5,0,0,1,572,204c2.2-11.53,4.21-19.57,7.27-27.95l6.06-3.28a39.7,39.7,0,0,0,3.3-15.05c.07-3.83-.6-5.22-1.2-7.79a695.58,695.58,0,0,0-182-24.38c-19.95,17.14-31,16.34-37.73,13.81-5.33-2-9.62-7.05-18.51-7.46-6.42-.29-9.06,2.11-13.67,2.58-6.47.66-15.92-2.58-28.88-19.92a323.82,323.82,0,0,0-159-3.08c-7.52,8.52-6.59,16-9.88,24a5.87,5.87,0,0,0,1,2.1,9.28,9.28,0,0,0,1.37,1.4c1,.85,1.87,1.84,2.84,2.73,5.94,5.47-.37,24.91-.37,24.91-3.14,9.68-5.84,24.16-4.19,45.67l9.52.87c9.67-40.17,46.26-68.13,86.74-66.88C276.83,147.6,312.6,180.26,317.82,223Z"/><path class="cls-3" d="M318.56,217.95c-4.41,48.08-44,83.48-92,79.07a87.42,87.42,0,0,1,16-174.11C290.58,127.32,323,169.87,318.56,217.95Z"/><path class="cls-3" d="M561,249.37c-4.63,50.45-47.28,87.59-97.73,83A91.73,91.73,0,1,1,480,149.63C530.45,154.27,565.6,198.92,561,249.37Z"/><circle class="cls-8" cx="234.03" cy="206.17" r="87.42" transform="matrix(0.09, -1, 1, 0.09, 7.33, 420.37)"/><circle class="cls-9" cx="234.03" cy="206.17" r="87.42" transform="matrix(0.09, -1, 1, 0.09, 7.33, 420.37)"/><circle class="cls-10" cx="471.06" cy="237" r="91.73" transform="translate(192 684.43) rotate(-84.76)"/><circle class="cls-9" cx="471.06" cy="237" r="91.73" transform="translate(192 684.43) rotate(-84.76)"/><ellipse class="cls-3" cx="559.93" cy="156.97" rx="3.82" ry="13.38" transform="translate(284.49 669.12) rotate(-77.39)"/><ellipse class="cls-3" cx="153.53" cy="120.63" rx="6.69" ry="2.87" transform="translate(-5.45 7.28) rotate(-2.67)"/><path class="cls-11" d="M352.67,136a41.3,41.3,0,0,0-7,33.91,27.12,27.12,0,0,0-6.21,2.31c-3.27,1.62-6.86,4.17-8.16,7.89a64.2,64.2,0,0,1,.37-24.91,63.53,63.53,0,0,1,5.2-14.88,33.36,33.36,0,0,1,5-2.42A24.48,24.48,0,0,1,352.67,136Z"/><path
        class="cls-7"
        d="M587.14,150S680.8,224.11,696.24,294.3s-6.12,66.65-6.12,66.65c-2.73.11-6.45-.12-7.61-2.26-1.28-2.37,1.18-5.93,2.26-7.61,0,0,6.51-10.1,8.76-27.33,1.07-8.18-1.58-14.52-6.88-27.2a131,131,0,0,0-14.77-26.36c-12.57-17.25-46.25-53.89-94-99.28Z"/></g>
    </g>
  </g>
</svg>
