<?xml version="1.0" encoding="utf-8"?>
<!-- Generator: Adobe Illustrator 21.1.0, SVG Export Plug-In . SVG Version: 6.00 Build 0)  -->
<svg version="1.1" id="Layer_1" xmlns="http://www.w3.org/2000/svg" xmlns:xlink="http://www.w3.org/1999/xlink" x="0px" y="0px"
	 viewBox="0 0 413.2 381.7" style="enable-background:new 0 0 413.2 381.7;" xml:space="preserve">
<style type="text/css">
	.st0{opacity:0.2;fill:#FFF;enable-background:new    ;}
	.st1{opacity:0.8;fill:#FFF;}
</style>
<title>Asset 10</title>
<g id="Layer_2">
	<g id="finals">
		<path class="st0" d="M340,12.4C338.7,5.2,332.5,0,325.2,0h-77.6c-6.2,0-11.7,3.8-13.9,9.5l-19.2,91.6L178.8,90
			c-0.6-0.3-1.1-0.8-1.2-1.5l-13.4-76.1C162.9,5.2,156.7,0,149.4,0H79c-7.3,0-13.5,5.2-14.8,12.4L2.2,364c-1.4,8.2,4,15.9,12.2,17.4
			c0.9,0.2,1.7,0.2,2.6,0.2h64.5c7.3,0,13.5-5.2,14.8-12.4l28-158.6l28.3,141.8c1.2,5.8,4.9,10.8,10.1,13.7l32.8,11.4
			c2.3,1.3,9.2,1.3,11.5,0.1l22.4-10.8c5.6-2.7,19.6-7.8,20.9-13.9l29.9-142.3l28,158.6c1.3,7.2,7.5,12.4,4.8,12.4h75.5
			c19.3,0,26.4-8.4,24.8-17.6L340,12.4z"/>
		<path class="st1" d="M62.2,12.4L0.2,364c-1.4,8.2,4,15.9,12.2,17.4c0.9,0.2,1.7,0.2,2.6,0.2l27.7,0.1c4.9,0.1,9.1-3.4,10-8.2
			l72.6-361.8c0.9-5.4-2.7-10.6-8.2-11.6C116.5,0,116,0,115.4,0H77C69.7,0,63.5,5.2,62.2,12.4z"/>
		<path class="st1" d="M303.1,113.8l-23.1,96.3l27.6,158.8c1.2,7.2,7.4,12.4,14.6,12.5l34.8,0.3c5.5,0.1,10.1-4.3,10.2-9.8
			c0-0.7,0-1.3-0.2-2l-62-256c-0.1-0.5-0.6-0.9-1.2-0.8C303.5,113.1,303.2,113.4,303.1,113.8z"/>
		<path class="st1" d="M208.8,127.4c-0.4,2.2-2.5,3.6-4.6,3.2c-0.3-0.1-0.7-0.2-1-0.3l-54.9-21c-0.5-0.2-1.1,0-1.3,0.5
			c0,0.1-0.1,0.1-0.1,0.2L124,211.8l28.2,140.7c1.2,5.8,4.9,10.9,10.1,13.7l25.6,8.4c3.4,1.8,7.7,0.5,9.5-2.9
			c0.3-0.6,0.5-1.2,0.7-1.9l84.2-357.9c1-5.4-2.6-10.6-8.1-11.6C273.6,0.1,273,0,272.4,0h-24.9c-6.4,0-12,4-14.1,10L208.8,127.4z
			 M161.2,165.2l35.6,13.4c1.6,0.8,2.4,2.6,2.1,4.3l-20.8,58c0,0.6-0.4,1-1,1s-1-0.4-1-1l-16.3-74.6c-0.1-0.5,0.2-1.1,0.8-1.2
			C160.7,165.1,161,165.1,161.2,165.2L161.2,165.2z"/>
	</g>
</g>
</svg>
