<svg xmlns="http://www.w3.org/2000/svg" viewBox="0 0 345.47 381.61"><defs><style>.cls-1,.cls-2{fill:#fff;}.cls-2{opacity:0.5;}</style></defs><title>Asset 4</title><g id="Layer_2" data-name="Layer 2"><g id="finals"><path class="cls-1" d="M65.94,3.31.06,376.91A4,4,0,0,0,4,381.61H29.91a4,4,0,0,0,3.93-3.27L103.32,4.73A4,4,0,0,0,99.38,0H69.88A4,4,0,0,0,65.94,3.31Z"/><line class="cls-1" x1="345.23" y1="381.61" x2="339.06" y2="346.59"/><path class="cls-1" d="M263.16,113.83,241,212.13l28.74,166.14a4,4,0,0,0,3.94,3.34h33.74a4,4,0,0,0,3.94-4.69L265.13,113.86A1,1,0,0,0,263.16,113.83Z"/><path class="cls-1" d="M201.8,3.31,179.92,127.39a4,4,0,0,1-5.63,2.93l-44.93-21a1,1,0,0,0-1.4.69L105.09,211.75l29,147.92a4,4,0,0,0,2.07,2.85L167.35,379a4,4,0,0,0,5.81-2.87L239.41,4.67A4,4,0,0,0,235.47,0H205.74A4,4,0,0,0,201.8,3.31ZM142.28,165.24l25.61,13.42a4,4,0,0,1,2.08,4.28l-10.83,58a1,1,0,0,1-2,0l-16.34-74.63A1,1,0,0,1,142.28,165.24Z"/><path class="cls-2" d="M279.53,3.31A4,4,0,0,0,275.59,0H203.38L185.56,101.1,159.86,90a2,2,0,0,1-1.17-1.49l-15-85.17A4,4,0,0,0,139.73,0H67.52L1.06,376.91A4,4,0,0,0,5,381.61H71.8a4,4,0,0,0,3.94-3.31L105.3,210.63l30.15,151h.64l32.4,17.91a8,8,0,0,0,7.53.11l33.22-17.12a4,4,0,0,0,2.11-2.86l29.8-149L270.73,378.3a4,4,0,0,0,3.94,3.31h66.8a4,4,0,0,0,3.94-4.69Z"/></g></g></svg>
