<svg xmlns="http://www.w3.org/2000/svg" viewBox="0 0 363.19 381.72"><defs><style>.cls-1{fill:#fff;}</style></defs><title>Asset 7</title><g id="Layer_2" data-name="Layer 2"><g id="finals"><path class="cls-1" d="M62.23,12.4.23,364A15,15,0,0,0,15,381.61l27.71.09a10,10,0,0,0,9.95-8.17L125.25,11.7A10,10,0,0,0,115.4,0H77A15,15,0,0,0,62.23,12.4Z"/><path class="cls-1" d="M303.06,113.83l-23.15,96.3,27.63,158.77a15,15,0,0,0,14.65,12.49l30.83.34a10,10,0,0,0,10-11.84l-58-256A1,1,0,0,0,303.06,113.83Z"/><path class="cls-1" d="M208.81,127.39a4,4,0,0,1-5.63,2.93l-54.93-21a1,1,0,0,0-1.4.69L124,211.75l28.18,140.69a20,20,0,0,0,10.14,13.69l25.55,8.36A7,7,0,0,0,198,369.65L282.25,11.77A10,10,0,0,0,272.41,0H247.47a15,15,0,0,0-14.14,10Zm-47.64,37.85,35.61,13.42a4,4,0,0,1,2.08,4.28l-20.83,58a1,1,0,0,1-2,0l-16.34-74.63A1,1,0,0,1,161.17,165.24Z"/></g></g></svg>