<svg xmlns="http://www.w3.org/2000/svg" viewBox="0 0 425.25 489.01"><defs><style>.cls-1{fill:#fff;}</style></defs><title>Asset 1svg</title><g id="Layer_2" data-name="Layer 2"><g id="Layer_1-2" data-name="Layer 1"><path class="cls-1" d="M103.12,489l-100.33-.5A2.8,2.8,0,0,1,.2,484.69L189.56,1.78A2.8,2.8,0,0,1,192.22,0L295.45,1.84A2.8,2.8,0,0,1,298,5.66L109.67,484.57A7,7,0,0,1,103.12,489Z"/><path class="cls-1" d="M329.52,488.85h92.93a2.8,2.8,0,0,0,2.63-3.77L322.16,207.21a2.8,2.8,0,0,0-5.23-.07L270.31,323.86a14,14,0,0,0-.13,10.06L326.89,487A2.8,2.8,0,0,0,329.52,488.85Z"/></g></g></svg>