<svg xmlns="http://www.w3.org/2000/svg" viewBox="0 0 413.25 381.72"><defs><style>.cls-1,.cls-2{fill:#fff;}.cls-2{opacity:0.5;}</style></defs><title>Asset 10</title><g id="Layer_2" data-name="Layer 2"><g id="finals"><path class="cls-1" d="M62.23,12.4.23,364A15,15,0,0,0,15,381.61l27.71.09a10,10,0,0,0,9.95-8.17L125.25,11.7A10,10,0,0,0,115.4,0H77A15,15,0,0,0,62.23,12.4Z"/><path class="cls-1" d="M303.06,113.83l-23.15,96.3,27.63,158.77a15,15,0,0,0,14.65,12.49l34.83.34a10,10,0,0,0,10-11.84l-62-256A1,1,0,0,0,303.06,113.83Z"/><path class="cls-1" d="M208.81,127.39a4,4,0,0,1-5.63,2.93l-54.93-21a1,1,0,0,0-1.4.69L124,211.75l28.18,140.69a20,20,0,0,0,10.14,13.69l25.55,8.36A7,7,0,0,0,198,369.65L282.25,11.77A10,10,0,0,0,272.41,0H247.47a15,15,0,0,0-14.14,10Zm-47.64,37.85,35.61,13.42a4,4,0,0,1,2.08,4.28l-20.83,58a1,1,0,0,1-2,0l-16.34-74.63A1,1,0,0,1,161.17,165.24Z"/><path class="cls-2" d="M340,12.4A15,15,0,0,0,325.25,0H247.62a15,15,0,0,0-13.95,9.48L214.45,101.1,178.76,90a2,2,0,0,1-1.17-1.49L164.17,12.4A15,15,0,0,0,149.39,0H79A15,15,0,0,0,64.23,12.4L2.23,364A15,15,0,0,0,17,381.61H81.46a15,15,0,0,0,14.77-12.4l28-158.58,28.31,141.78a20,20,0,0,0,10.08,13.67l32.8,11.44c2.34,1.29,9.16,1.33,11.53.11l22.38-10.84c5.57-2.7,19.58-7.83,20.86-13.89l29.89-142.27,28,158.58c1.26,7.17,7.49,12.4,4.77,12.4h75.46c19.33,0,26.39-8.42,24.77-17.6Z"/></g></g></svg>
